<?xml version="1.0" standalone="no"?>
<!DOCTYPE svg PUBLIC "-//W3C//DTD SVG 20010904//EN"
 "http://www.w3.org/TR/2001/REC-SVG-20010904/DTD/svg10.dtd">
<svg version="1.0" xmlns="http://www.w3.org/2000/svg"
 width="460.000000pt" height="460.000000pt" viewBox="0 0 460.000000 460.000000"
 preserveAspectRatio="xMidYMid meet">

<g transform="translate(0.000000,460.000000) scale(0.100000,-0.100000)"
fill="#000000" stroke="none">
<path d="M2170 4070 c-131 -23 -275 -120 -359 -245 -78 -114 -106 -254 -97
-480 3 -88 8 -179 12 -202 l6 -41 -43 4 c-49 6 -51 11 24 -47 27 -21 36 -49
16 -49 -6 0 -9 -7 -5 -15 3 -9 -9 -35 -29 -61 -32 -41 -44 -82 -29 -96 3 -3 7
-61 10 -129 4 -110 10 -153 31 -209 3 -8 7 -22 9 -30 12 -67 43 -149 85 -222
27 -48 49 -92 49 -97 0 -5 -28 -34 -62 -65 -53 -47 -89 -66 -243 -132 -222
-95 -530 -244 -568 -276 -21 -17 -40 -57 -76 -163 -27 -77 -69 -196 -94 -265
-72 -203 -114 -405 -157 -750 -5 -41 -18 -147 -30 -235 -11 -88 -20 -183 -20
-212 l0 -53 369 0 368 0 8 73 c4 39 11 112 14 161 4 58 10 91 19 94 6 2 12 -5
12 -15 1 -41 30 -235 41 -272 l12 -41 409 0 c224 0 408 2 408 4 0 3 -13 25
-30 49 -28 42 -70 153 -140 372 -36 113 -39 130 -52 344 -5 85 -15 166 -20
180 l-11 26 -7 -33 c-4 -18 -11 -36 -15 -40 -5 -4 -5 1 -2 10 3 10 2 20 -2 23
-7 4 -26 111 -46 265 -11 89 -23 625 -14 636 6 7 2 41 -11 90 -23 92 -25 117
-7 111 6 -2 11 -10 9 -17 -2 -8 3 -10 13 -7 9 4 15 1 15 -8 0 -8 5 -15 11 -15
5 0 7 -5 3 -11 -4 -8 1 -9 16 -4 17 6 21 4 14 -6 -6 -12 -5 -12 9 0 15 12 17
11 17 -3 0 -41 15 -66 40 -66 11 0 20 -4 20 -9 0 -5 8 -8 18 -7 9 0 16 -5 14
-12 -2 -10 2 -10 18 -2 17 9 24 6 44 -14 14 -13 27 -21 30 -18 3 3 6 -1 6 -9
0 -12 2 -11 10 1 9 13 11 13 20 0 6 -10 10 -11 10 -2 0 6 9 12 20 12 11 0 20
-7 20 -16 0 -10 5 -12 13 -7 19 12 45 14 52 3 3 -6 17 -10 31 -10 14 0 36 -7
49 -16 17 -11 25 -12 25 -4 0 7 8 9 20 5 12 -4 28 -1 36 6 12 10 20 10 34 1
16 -10 19 -8 23 11 4 19 4 18 6 -5 0 -15 6 -30 13 -34 8 -5 9 3 5 29 -8 52 19
62 36 13 5 -15 87 38 87 56 0 9 4 20 10 23 6 3 7 -1 4 -9 -4 -10 -1 -16 7 -16
19 1 43 22 47 40 2 8 8 17 13 18 5 2 6 9 3 14 -4 6 -2 8 4 4 6 -3 17 0 25 8
20 20 27 10 27 -40 0 -74 23 -97 53 -54 14 20 15 20 20 -7 10 -48 -2 -1073
-13 -1168 -16 -131 -37 -245 -70 -370 -23 -86 -60 -279 -60 -310 0 -3 220 -5
489 -5 l490 0 4 32 3 33 13 -32 13 -33 404 0 c250 0 404 4 404 10 0 18 -90
426 -149 680 -33 140 -72 307 -87 370 -64 275 -159 499 -285 671 -39 52 -77
107 -87 123 -57 94 -68 104 -152 130 -44 14 -156 41 -248 60 -92 20 -230 48
-308 65 -141 29 -192 48 -271 103 -42 28 -53 54 -33 74 5 5 20 66 32 134 18
100 22 155 20 270 -4 178 -4 272 0 371 2 53 -2 82 -11 93 -15 18 -66 22 -76 6
-17 -27 -22 3 -28 148 -10 299 -60 444 -200 585 -94 95 -173 144 -266 169 -69
18 -202 22 -281 8z m-147 -493 c15 3 35 -8 61 -32 22 -19 48 -35 57 -35 10 0
33 -13 51 -29 18 -15 43 -33 56 -40 19 -10 22 -20 22 -75 0 -34 -3 -65 -6 -68
-6 -7 -100 38 -127 61 -15 12 -20 13 -26 2 -5 -8 -17 -11 -30 -6 -18 5 -21 2
-21 -19 0 -14 5 -28 10 -31 8 -5 7 -11 0 -20 -8 -9 -33 -14 -73 -13 -38 1 -62
-3 -65 -11 -3 -10 -53 -41 -67 -41 -3 0 -5 5 -5 11 0 5 5 7 12 3 7 -4 8 -3 4
5 -4 7 -17 11 -29 9 -19 -3 -22 2 -22 37 -1 22 7 55 16 74 9 19 14 41 12 49
-3 8 3 15 16 19 14 3 21 13 21 29 0 15 6 24 15 24 9 0 18 7 22 16 3 9 19 30
35 46 15 16 28 34 29 41 0 8 2 8 5 1 3 -6 15 -9 27 -7z m72 -307 c3 -5 1 -10
-4 -10 -6 0 -11 5 -11 10 0 6 2 10 4 10 3 0 8 -4 11 -10z m182 -105 c34 8 52
-18 53 -76 0 -25 5 -71 10 -102 7 -37 8 -75 2 -108 -9 -47 -8 -52 16 -74 21
-19 26 -32 24 -62 -4 -48 -15 -60 -45 -46 -37 17 -117 27 -117 15 0 -5 14 -15
31 -21 44 -15 34 -41 -29 -72 -28 -15 -52 -25 -52 -23 0 1 -16 -4 -35 -12 -20
-8 -40 -12 -45 -9 -14 9 -3 70 21 109 11 19 18 40 14 46 -4 6 -1 17 5 25 7 8
9 22 6 31 -6 15 -10 14 -34 -8 -15 -14 -35 -28 -44 -31 -10 -4 -18 -11 -18
-16 0 -5 -8 -12 -18 -15 -19 -6 -46 -82 -40 -113 2 -10 13 -22 26 -28 25 -11
30 -46 8 -64 -7 -6 -16 -25 -20 -41 -9 -49 -47 -35 -61 23 -4 15 -12 27 -18
27 -7 0 -7 4 1 12 14 14 16 52 3 44 -5 -3 -11 1 -15 9 -3 8 -15 15 -26 15 -16
0 -19 -4 -12 -17 10 -20 1 -65 -13 -70 -13 -4 -49 52 -63 97 -7 22 -10 121 -9
267 1 218 2 232 21 245 11 7 30 23 42 36 16 17 24 19 28 10 5 -10 7 -10 12 0
8 17 31 15 42 -4 7 -13 13 -14 30 -5 11 6 33 11 47 11 24 0 25 -1 11 -16 -9
-8 -16 -19 -16 -22 0 -4 -23 -18 -50 -31 -28 -13 -53 -28 -56 -33 -10 -16 5
-21 21 -8 8 7 15 8 15 3 0 -5 -11 -16 -25 -23 -38 -21 -25 -35 36 -37 43 -2
49 0 31 7 -29 12 -23 36 7 33 11 -2 21 2 21 7 0 6 5 10 10 10 15 0 12 -47 -2
-53 -7 -2 0 -8 15 -12 15 -4 26 -12 24 -19 -5 -16 -48 -36 -79 -36 -21 0 -25
-4 -21 -20 6 -23 57 -36 105 -26 57 11 158 68 174 97 17 34 17 39 1 39 -9 0
-11 12 -9 38 3 34 0 41 -30 64 -18 14 -40 28 -48 31 -8 3 5 4 29 2 31 -3 48 0
60 12 15 15 16 15 19 -1 3 -14 10 -16 29 -11z m353 -69 c0 -3 -4 -8 -10 -11
-5 -3 -10 -1 -10 4 0 6 5 11 10 11 6 0 10 -2 10 -4z m-660 -10 c0 -2 -7 -7
-16 -10 -8 -3 -12 -2 -9 4 6 10 25 14 25 6z m624 -11 c3 -9 0 -15 -9 -15 -16
0 -27 14 -18 24 10 10 21 7 27 -9z m117 0 c0 -6 -10 -12 -23 -13 -19 -4 -20
-2 -9 12 15 17 33 18 32 1z m-604 -20 c18 -19 16 -21 -18 -30 -24 -6 -26 -4
-22 19 6 30 18 33 40 11z m268 -528 c19 -21 27 -23 102 -19 73 3 83 1 92 -17
11 -20 5 -51 -9 -51 -4 0 -7 -7 -6 -17 1 -22 -82 -65 -134 -69 -22 -1 -54 1
-70 6 -16 5 -32 5 -35 0 -7 -11 12 -23 39 -24 15 -1 22 -9 24 -28 3 -28 3 -28
-53 -28 -31 0 -69 7 -86 16 -35 17 -48 12 -29 -11 8 -10 9 -15 1 -15 -6 0 -11
4 -11 10 0 5 -15 24 -33 42 -24 24 -34 44 -36 71 -3 42 -3 42 35 22 29 -15 54
-19 54 -10 0 3 -10 19 -21 35 -13 17 -20 37 -16 49 4 18 1 21 -23 21 -32 0
-47 14 -29 26 7 4 31 8 53 10 23 1 57 7 76 12 44 11 89 -1 115 -31z m73 -209
c20 -20 14 -28 -20 -27 -18 1 -25 3 -15 6 9 2 17 8 17 13 0 5 -8 11 -17 13
-15 4 -14 5 3 6 11 0 25 -4 32 -11z m-136 -88 c9 -11 21 -20 27 -20 7 0 14 -7
17 -15 3 -8 14 -17 25 -20 30 -10 22 -22 -25 -38 -42 -14 -46 -14 -62 4 -9 10
-24 19 -32 19 -10 0 -12 6 -7 18 11 25 11 47 1 49 -9 1 -26 23 -26 35 0 13 65
-12 82 -32z m138 -420 c0 -6 -9 -5 -20 2 -11 7 -20 16 -20 21 0 4 9 3 20 -3
11 -6 20 -15 20 -20z m20 20 c0 -5 -2 -10 -4 -10 -3 0 -8 5 -11 10 -3 6 -1 10
4 10 6 0 11 -4 11 -10z m40 -9 c0 -6 -4 -13 -10 -16 -5 -3 -10 1 -10 9 0 9 5
16 10 16 6 0 10 -4 10 -9z m1043 -847 c7 -36 -12 -49 -95 -68 -132 -30 -148
-31 -148 -10 0 32 12 41 105 73 112 38 131 39 138 5z"/>
<path d="M2120 2883 c0 -6 -7 -19 -16 -27 -14 -15 -14 -16 4 -16 26 0 82 20
82 30 0 15 -33 21 -42 8 -6 -10 -10 -10 -18 2 -6 9 -10 10 -10 3z"/>
<path d="M2260 2870 c0 -5 5 -10 10 -10 6 0 10 5 10 10 0 6 -4 10 -10 10 -5 0
-10 -4 -10 -10z"/>
<path d="M2210 2820 c0 -5 7 -10 15 -10 8 0 15 5 15 10 0 6 -7 10 -15 10 -8 0
-15 -4 -15 -10z"/>
<path d="M2055 2770 c-3 -5 -1 -10 4 -10 6 0 11 5 11 10 0 6 -2 10 -4 10 -3 0
-8 -4 -11 -10z"/>
<path d="M1620 3008 c0 -40 6 -90 13 -110 l13 -37 10 55 c6 31 6 58 1 61 -4 3
-8 17 -7 31 4 54 0 72 -15 72 -12 0 -15 -15 -15 -72z"/>
<path d="M2520 1790 c0 -5 5 -10 11 -10 5 0 7 5 4 10 -3 6 -8 10 -11 10 -2 0
-4 -4 -4 -10z"/>
</g>
</svg>
