<?xml version="1.0" standalone="no"?>
<!DOCTYPE svg PUBLIC "-//W3C//DTD SVG 20010904//EN"
 "http://www.w3.org/TR/2001/REC-SVG-20010904/DTD/svg10.dtd">
<svg version="1.0" xmlns="http://www.w3.org/2000/svg"
 width="500.000000pt" height="500.000000pt" viewBox="0 0 500.000000 500.000000"
 preserveAspectRatio="xMidYMid meet">

<g transform="translate(0.000000,500.000000) scale(0.100000,-0.100000)"
fill="#000000" stroke="none">
<path d="M1838 4093 c424 -2 1120 -2 1545 0 424 1 77 2 -773 2 -850 0 -1197
-1 -772 -2z"/>
<path d="M4220 4053 c0 -6 7 -16 15 -23 8 -7 15 -16 15 -21 0 -5 -706 -9
-1641 -9 -1455 0 -1640 2 -1635 15 8 22 0 18 -16 -7 l-15 -23 1665 0 1666 0 7
-25 c6 -20 7 -21 8 -5 0 11 -15 40 -34 64 -19 24 -35 39 -35 34z"/>
<path d="M931 3954 c0 -11 3 -14 6 -6 3 7 2 16 -1 19 -3 4 -6 -2 -5 -13z"/>
<path d="M1010 3929 c0 -10 57 -168 147 -404 26 -66 61 -160 79 -210 18 -49
50 -137 72 -195 l39 -105 1260 -3 1259 -2 26 72 c15 40 45 120 66 178 22 58
56 148 75 200 60 162 165 444 172 463 7 16 -73 17 -1594 17 -1139 0 -1601 -3
-1601 -11z m2752 -79 c-1 -14 -11 -52 -21 -85 -11 -33 -45 -141 -76 -240 -32
-99 -75 -236 -97 -305 -21 -69 -43 -135 -48 -147 l-10 -23 -904 0 c-853 0
-905 1 -910 18 -20 69 -167 541 -222 711 -13 40 -24 80 -24 87 0 12 180 14
1158 12 l1157 -3 -3 -25z"/>
<path d="M1520 3760 c0 -15 18 -74 135 -450 l73 -235 883 0 883 0 7 25 c4 14
33 108 64 210 73 240 127 419 132 447 l5 23 -1091 -3 c-946 -2 -1091 -4 -1091
-17z m450 -45 c0 -13 -24 -15 -182 -13 -134 2 -182 6 -186 16 -3 9 38 12 182
12 160 0 186 -2 186 -15z m170 0 c0 -10 -10 -15 -30 -15 -20 0 -30 5 -30 15 0
10 10 15 30 15 20 0 30 -5 30 -15z m528 0 c3 -3 -97 -5 -222 -5 -136 0 -225 4
-221 9 5 10 433 6 443 -4z m615 0 c2 -10 -465 -20 -491 -10 -7 3 -10 9 -7 15
9 14 494 9 498 -5z m-1303 -65 c0 -6 -50 -10 -130 -10 -80 0 -130 4 -130 10 0
6 50 10 130 10 80 0 130 -4 130 -10z m170 0 c0 -5 -13 -10 -30 -10 -16 0 -30
5 -30 10 0 6 14 10 30 10 17 0 30 -4 30 -10z m1165 0 c-4 -6 -130 -10 -346
-10 -219 0 -339 4 -339 10 0 6 122 10 346 10 227 0 343 -3 339 -10z m300 0
c-3 -6 -48 -10 -101 -10 -56 0 -94 4 -94 10 0 6 40 10 101 10 64 0 98 -4 94
-10z m-1615 -60 c0 -6 -67 -10 -180 -10 -113 0 -180 4 -180 10 0 6 67 10 180
10 113 0 180 -4 180 -10z m160 0 c0 -5 -13 -10 -30 -10 -16 0 -30 5 -30 10 0
6 14 10 30 10 17 0 30 -4 30 -10z m1440 0 c0 -7 -153 -10 -440 -10 -287 0
-440 3 -440 10 0 7 153 10 440 10 287 0 440 -3 440 -10z m-1590 -60 c0 -6 -58
-10 -155 -10 -97 0 -155 4 -155 10 0 6 58 10 155 10 97 0 155 -4 155 -10z
m160 0 c0 -5 -13 -10 -29 -10 -17 0 -33 5 -36 10 -4 6 8 10 29 10 20 0 36 -4
36 -10z m390 0 c0 -5 -18 -10 -40 -10 -22 0 -40 5 -40 10 0 6 18 10 40 10 22
0 40 -4 40 -10z m1030 0 c0 -7 -173 -10 -500 -10 -327 0 -500 3 -500 10 0 7
173 10 500 10 327 0 500 -3 500 -10z m-1580 -60 c0 -6 -62 -10 -165 -10 -103
0 -165 4 -165 10 0 6 62 10 165 10 103 0 165 -4 165 -10z m160 0 c0 -5 -11
-10 -25 -10 -14 0 -25 5 -25 10 0 6 11 10 25 10 14 0 25 -4 25 -10z m450 0 c0
-6 -68 -10 -184 -10 -113 0 -187 4 -191 10 -4 7 60 10 184 10 121 0 191 -4
191 -10z m560 0 c0 -6 -78 -10 -215 -10 -137 0 -215 4 -215 10 0 6 78 10 215
10 137 0 215 -4 215 -10z m-1150 -60 c0 -6 -41 -10 -104 -10 -59 0 -108 4
-111 10 -4 6 33 10 104 10 67 0 111 -4 111 -10z m150 0 c0 -5 -11 -10 -25 -10
-14 0 -25 5 -25 10 0 6 11 10 25 10 14 0 25 -4 25 -10z m865 0 c-4 -6 -148
-10 -401 -10 -256 0 -394 4 -394 10 0 7 140 10 401 10 264 0 398 -3 394 -10z
m148 3 c-13 -2 -33 -2 -45 0 -13 2 -3 4 22 4 25 0 35 -2 23 -4z m-1153 -53 c0
-6 -63 -10 -170 -10 -107 0 -170 4 -170 10 0 6 63 10 170 10 107 0 170 -4 170
-10z m150 0 c0 -5 -13 -10 -30 -10 -16 0 -30 5 -30 10 0 6 14 10 30 10 17 0
30 -4 30 -10z m290 0 c0 -6 -45 -10 -116 -10 -74 0 -113 4 -109 10 4 6 53 10
116 10 66 0 109 -4 109 -10z m810 0 c0 -6 -130 -10 -371 -10 -244 0 -368 3
-364 10 4 6 138 10 371 10 236 0 364 -4 364 -10z m170 0 c0 -5 -18 -10 -41
-10 -24 0 -38 4 -34 10 3 6 22 10 41 10 19 0 34 -4 34 -10z m-1420 -50 c10 -7
-32 -10 -128 -10 -93 0 -141 4 -137 10 8 13 245 13 265 0z m148 -7 c-10 -2
-26 -2 -35 0 -10 3 -2 5 17 5 19 0 27 -2 18 -5z m140 0 c-10 -2 -28 -2 -40 0
-13 2 -5 4 17 4 22 1 32 -1 23 -4z m669 0 c-109 -2 -285 -2 -390 0 -106 1 -16
2 198 2 215 0 301 -1 192 -2z m-952 -43 c23 -8 -174 -23 -220 -16 -16 2 -34 4
-38 5 -5 0 -5 6 -2 12 8 11 227 11 260 -1z m1463 -5 c9 -8 -190 -10 -433 -4
l-130 3 125 6 c141 6 430 3 438 -5z m-1310 -2 c-10 -2 -26 -2 -35 0 -10 3 -2
5 17 5 19 0 27 -2 18 -5z m600 0 c-27 -2 -69 -2 -95 0 -27 2 -5 3 47 3 52 0
74 -1 48 -3z m-738 -43 c10 -6 -36 -10 -138 -10 -100 0 -151 3 -147 10 8 13
265 13 285 0z m146 -3 c4 -4 -8 -7 -27 -7 -23 0 -30 3 -20 9 15 10 37 9 47 -2z
m1279 3 c4 -7 -160 -10 -485 -10 -325 0 -489 3 -485 10 4 6 177 10 485 10 308
0 481 -4 485 -10z m-1052 -7 c-13 -2 -33 -2 -45 0 -13 2 -3 4 22 4 25 0 35 -2
23 -4z m-218 -43 c4 -6 -7 -10 -25 -10 -18 0 -29 4 -25 10 3 6 15 10 25 10 10
0 22 -4 25 -10z m690 0 c4 -7 -102 -10 -310 -10 -208 0 -314 3 -310 10 4 6
118 10 310 10 192 0 306 -4 310 -10z m-877 -7 c-26 -2 -71 -2 -100 0 -29 2 -8
3 47 3 55 0 79 -1 53 -3z m990 0 c-10 -2 -26 -2 -35 0 -10 3 -2 5 17 5 19 0
27 -2 18 -5z m-938 -43 c0 -6 -56 -10 -149 -10 -89 0 -152 4 -156 10 -4 7 48
10 149 10 97 0 156 -4 156 -10z m140 0 c0 -5 -11 -10 -25 -10 -14 0 -25 5 -25
10 0 6 11 10 25 10 14 0 25 -4 25 -10z m1010 0 c0 -7 -163 -10 -470 -10 -307
0 -470 3 -470 10 0 7 163 10 470 10 307 0 470 -3 470 -10z"/>
<path d="M940 3925 c0 -5 5 -17 10 -25 5 -8 10 -10 10 -5 0 6 -5 17 -10 25 -5
8 -10 11 -10 5z"/>
<path d="M4259 3894 c-5 -15 -8 -29 -5 -31 2 -2 8 10 14 26 13 38 5 41 -9 5z"/>
<path d="M966 3860 c3 -14 11 -32 16 -40 6 -10 7 -7 2 10 -3 14 -11 32 -16 40
-6 10 -7 7 -2 -10z"/>
<path d="M4206 3754 c-21 -52 -36 -97 -34 -100 3 -2 22 39 42 92 20 53 35 98
33 100 -2 2 -21 -39 -41 -92z"/>
<path d="M1010 3745 c0 -5 5 -17 10 -25 5 -8 10 -10 10 -5 0 6 -5 17 -10 25
-5 8 -10 11 -10 5z"/>
<path d="M1030 3695 c0 -5 5 -17 10 -25 5 -8 10 -10 10 -5 0 6 -5 17 -10 25
-5 8 -10 11 -10 5z"/>
<path d="M4156 3625 c-9 -26 -7 -32 5 -12 6 10 9 21 6 23 -2 3 -7 -2 -11 -11z"/>
<path d="M1070 3590 c0 -8 5 -22 10 -30 9 -13 10 -13 10 0 0 8 -5 22 -10 30
-9 13 -10 13 -10 0z"/>
<path d="M4101 3484 c-23 -59 -40 -108 -38 -110 2 -2 22 44 46 102 24 58 41
108 38 110 -3 3 -24 -43 -46 -102z"/>
<path d="M1110 3485 c0 -5 5 -17 10 -25 5 -8 10 -10 10 -5 0 6 -5 17 -10 25
-5 8 -10 11 -10 5z"/>
<path d="M1130 3436 c0 -13 83 -217 86 -213 4 4 -72 206 -81 215 -3 3 -5 2 -5
-2z"/>
<path d="M4046 3345 c-9 -26 -7 -32 5 -12 6 10 9 21 6 23 -2 3 -7 -2 -11 -11z"/>
<path d="M3965 3134 c-38 -97 -75 -183 -83 -190 -11 -12 -210 -14 -1260 -14
-686 0 -1257 3 -1269 6 -14 4 -29 24 -44 60 -12 30 -24 53 -26 50 -9 -8 40
-107 58 -116 10 -6 177 -10 407 -10 l389 0 12 -54 c22 -99 116 -208 203 -236
24 -8 46 -19 50 -25 4 -5 8 15 8 46 0 36 5 61 14 68 9 8 57 11 147 9 l134 -3
3 -78 c3 -92 -5 -107 -59 -107 -35 0 -42 -4 -65 -42 -25 -39 -27 -41 -40 -23
-8 10 -14 14 -14 9 0 -6 6 -19 14 -29 12 -17 15 -15 41 28 24 43 30 47 65 47
21 0 43 7 50 15 7 8 16 12 21 9 5 -3 9 2 9 10 0 8 8 20 18 25 9 6 12 11 7 11
-6 0 -17 -6 -24 -12 -11 -11 -13 -10 -9 1 2 7 30 23 63 36 105 39 193 137 216
241 l12 54 432 0 c406 0 433 1 448 18 10 10 17 22 17 26 0 14 83 87 122 107
22 11 37 23 34 26 -6 6 -77 -37 -115 -71 -16 -14 -22 -16 -19 -6 3 8 29 75 57
149 29 73 50 135 48 137 -2 2 -35 -75 -72 -172z m-1117 -286 c5 -64 -8 -68
-268 -68 -254 0 -270 4 -270 64 0 18 3 36 7 39 4 4 124 6 267 5 l261 -3 3 -37z"/>
<path d="M1220 3203 c0 -15 53 -143 58 -139 2 3 -8 37 -23 75 -26 66 -35 82
-35 64z"/>
<path d="M4163 3123 c9 -2 23 -2 30 0 6 3 -1 5 -18 5 -16 0 -22 -2 -12 -5z"/>
<path d="M4278 3123 c12 -2 30 -2 40 0 9 3 -1 5 -23 4 -22 0 -30 -2 -17 -4z"/>
<path d="M4350 3110 c8 -5 22 -9 30 -9 10 0 8 3 -5 9 -27 12 -43 12 -25 0z"/>
<path d="M4400 3095 c0 -7 61 -37 66 -33 2 3 -12 12 -31 21 -19 9 -35 15 -35
12z"/>
<path d="M4182 3062 c-13 -4 17 -7 67 -7 50 0 83 3 73 7 -21 8 -109 8 -140 0z"/>
<path d="M4079 3022 c-45 -29 -119 -107 -119 -126 0 -5 13 8 30 31 34 46 84
87 132 108 18 8 26 14 17 15 -8 0 -35 -13 -60 -28z"/>
<path d="M4151 2976 c-48 -17 -108 -71 -133 -119 -31 -58 -31 -156 -1 -213 26
-49 80 -98 130 -119 41 -17 149 -20 190 -4 116 43 184 158 162 276 -5 25 -10
48 -12 49 -2 2 -32 -2 -68 -10 -63 -13 -64 -13 -61 -44 3 -26 -2 -35 -30 -52
-21 -12 -50 -20 -78 -20 l-45 1 28 15 c42 23 29 64 -20 64 -31 0 -29 24 3 39
l26 12 -26 24 c-34 31 -33 47 5 84 l31 31 -34 -1 c-18 0 -48 -6 -67 -13z"/>
<path d="M4570 2956 c0 -3 14 -31 30 -63 38 -72 39 -103 6 -103 -21 0 -27 8
-42 53 -9 28 -19 46 -22 39 -2 -7 1 -27 7 -44 26 -73 5 -172 -50 -240 -16 -21
-27 -38 -23 -38 4 0 13 8 20 18 8 10 13 12 14 5 0 -20 -70 -93 -119 -125 -25
-15 -40 -28 -34 -28 13 0 101 65 121 89 7 9 24 33 38 54 13 20 32 37 42 37 11
0 13 3 5 8 -18 11 -3 62 21 72 14 6 16 9 5 9 -12 1 -14 9 -11 34 6 38 16 47
59 47 55 0 81 -15 86 -52 l4 -33 1 32 c2 34 -26 63 -59 63 -12 0 -23 17 -35
52 -21 63 -64 140 -64 114z"/>
<path d="M3850 2886 c-15 -39 -12 -46 6 -13 9 16 13 31 10 34 -3 3 -10 -6 -16
-21z"/>
<path d="M3941 2844 c0 -11 3 -14 6 -6 3 7 2 16 -1 19 -3 4 -6 -2 -5 -13z"/>
<path d="M3831 2824 c0 -11 3 -14 6 -6 3 7 2 16 -1 19 -3 4 -6 -2 -5 -13z"/>
<path d="M3931 2737 c-1 -55 2 -76 10 -71 8 4 9 0 4 -15 -3 -11 -2 -28 3 -37
10 -18 9 3 -7 131 l-8 70 -2 -78z"/>
<path d="M3822 2780 c0 -14 2 -19 5 -12 2 6 2 18 0 25 -3 6 -5 1 -5 -13z"/>
<path d="M3054 2753 c-11 -10 -14 -14 -8 -10 7 4 73 7 148 5 90 -2 132 0 125
7 -5 6 -63 11 -127 13 -103 3 -120 1 -138 -15z"/>
<path d="M1790 2715 c-19 -22 -8 -25 13 -3 9 10 13 18 8 18 -5 0 -14 -7 -21
-15z"/>
<path d="M3332 2660 c-1 -44 -7 -82 -14 -89 -10 -11 -10 -13 0 -7 9 5 12 -8
12 -54 0 -62 12 -100 31 -100 6 0 3 7 -5 16 -20 19 -22 144 -4 162 8 8 55 12
144 12 152 0 144 5 144 -100 0 -55 -4 -71 -17 -79 -10 -6 -13 -11 -7 -11 26 0
35 30 32 106 -3 72 -5 80 -28 91 -28 15 -232 14 -262 -1 -15 -7 -17 0 -21 61
l-3 68 -2 -75z"/>
<path d="M2078 2640 c2 -53 -1 -86 -8 -96 -22 -25 -2 -15 32 17 18 18 25 29
16 26 -16 -6 -18 1 -18 46 0 29 -6 61 -12 70 -11 14 -12 3 -10 -63z"/>
<path d="M2517 2693 c-6 -10 -10 -49 -8 -85 1 -18 7 -28 17 -28 8 0 12 5 8 11
-3 6 -6 33 -5 60 1 47 -2 58 -12 42z"/>
<path d="M2585 2640 c0 -57 6 -72 20 -49 12 18 7 81 -6 95 -12 11 -14 4 -14
-46z"/>
<path d="M4678 2693 c7 -3 16 -2 19 1 4 3 -2 6 -13 5 -11 0 -14 -3 -6 -6z"/>
<path d="M1890 2632 c0 -34 3 -62 8 -62 8 0 7 108 -2 117 -3 4 -6 -21 -6 -55z"/>
<path d="M1965 2629 c0 -41 4 -59 13 -59 8 0 12 17 12 54 0 34 -5 56 -12 59
-10 3 -13 -11 -13 -54z"/>
<path d="M3822 2655 c0 -16 2 -22 5 -12 2 9 2 23 0 30 -3 6 -5 -1 -5 -18z"/>
<path d="M4715 2670 c-4 -6 -13 -9 -19 -7 -7 3 -13 -1 -13 -9 0 -8 3 -14 6
-14 12 1 44 30 39 36 -3 3 -9 0 -13 -6z"/>
<path d="M4610 2650 l-25 -8 25 -2 c23 -1 23 -2 5 -10 -17 -7 -17 -9 -2 -9 9
-1 17 -9 18 -18 0 -14 2 -15 6 -3 3 8 12 21 21 28 14 11 14 12 -4 12 -16 0
-17 2 -4 10 13 9 13 10 0 9 -8 -1 -26 -5 -40 -9z"/>
<path d="M3180 2625 c0 -8 2 -15 4 -15 2 0 6 7 10 15 3 8 1 15 -4 15 -6 0 -10
-7 -10 -15z"/>
<path d="M1482 2604 c-12 -8 -22 -20 -22 -26 0 -7 6 -4 13 5 10 14 33 17 139
18 70 0 132 -2 137 -6 6 -3 11 -41 11 -85 0 -65 -3 -81 -17 -89 -10 -6 -13
-11 -7 -11 22 0 37 32 38 80 1 45 3 49 21 44 18 -6 18 -4 -5 22 -54 64 -54 64
-174 64 -85 0 -117 -4 -134 -16z"/>
<path d="M3831 2604 c0 -11 3 -14 6 -6 3 7 2 16 -1 19 -3 4 -6 -2 -5 -13z"/>
<path d="M2938 2603 c7 -3 16 -2 19 1 4 3 -2 6 -13 5 -11 0 -14 -3 -6 -6z"/>
<path d="M3980 2600 c0 -5 5 -10 11 -10 5 0 7 5 4 10 -3 6 -8 10 -11 10 -2 0
-4 -4 -4 -10z"/>
<path d="M2263 2591 c98 -5 130 -10 137 -21 5 -8 11 -42 12 -75 l2 -60 3 50 4
50 42 -3 c23 -2 48 -11 56 -20 13 -16 13 -16 7 1 -3 10 -6 21 -6 23 0 2 -18 4
-39 4 -38 0 -64 15 -73 42 -4 10 -40 13 -139 14 l-134 1 128 -6z"/>
<path d="M3014 2582 c9 -11 16 -42 19 -82 l3 -65 2 63 c1 38 6 62 13 62 18 0
-8 27 -32 33 -19 5 -20 4 -5 -11z"/>
<path d="M3840 2574 c0 -22 73 -131 113 -167 43 -39 150 -97 177 -97 8 1 -14
13 -49 27 -79 33 -167 112 -209 190 -17 32 -32 53 -32 47z"/>
<path d="M4602 2534 c-13 -25 -46 -71 -75 -102 -29 -32 -41 -48 -27 -37 44 36
78 77 105 127 15 27 25 51 23 53 -2 3 -14 -16 -26 -41z"/>
<path d="M3979 2555 c12 -26 69 -83 95 -97 12 -5 6 3 -12 18 -19 16 -47 45
-63 64 -17 19 -26 26 -20 15z"/>
<path d="M1631 2542 c-5 -10 -6 -32 -1 -52 7 -31 8 -32 9 -8 1 15 6 30 12 34
8 4 7 9 -2 15 -10 6 -11 9 -1 9 6 0 12 5 12 10 0 16 -19 11 -29 -8z"/>
<path d="M3130 2555 c0 -5 5 -17 10 -25 5 -8 10 -10 10 -5 0 6 -5 17 -10 25
-5 8 -10 11 -10 5z"/>
<path d="M2807 2530 c-9 -11 -13 -20 -8 -20 6 0 12 -15 14 -32 l4 -33 1 33 c1
18 7 32 15 32 8 0 7 4 -3 10 -10 6 -11 10 -2 10 6 0 12 5 12 10 0 16 -14 12
-33 -10z"/>
<path d="M4030 2547 c0 -3 12 -12 26 -22 15 -9 23 -12 20 -6 -7 11 -46 35 -46
28z"/>
<path d="M2210 2495 c0 -25 5 -45 10 -45 6 0 10 20 10 45 0 25 -4 45 -10 45
-5 0 -10 -20 -10 -45z"/>
<path d="M1593 2495 c0 -22 2 -30 4 -17 2 12 2 30 0 40 -3 9 -5 -1 -4 -23z"/>
<path d="M1848 2523 c29 -4 37 -11 54 -51 l21 -46 23 30 c13 16 24 34 24 39
-1 12 -30 -25 -30 -37 0 -21 -19 -4 -35 32 -16 37 -21 40 -54 38 l-36 -1 33
-4z"/>
<path d="M1976 2522 c-2 -4 13 -6 35 -4 21 2 39 6 39 8 0 7 -69 4 -74 -4z"/>
<path d="M3473 2523 c9 -2 25 -2 35 0 9 3 1 5 -18 5 -19 0 -27 -2 -17 -5z"/>
<path d="M2854 2506 c-11 -28 1 -51 25 -51 32 0 49 28 32 49 -17 20 -50 21
-57 2z m46 -16 c0 -13 -7 -20 -20 -20 -19 0 -27 20 -13 33 13 14 33 6 33 -13z"/>
<path d="M2930 2491 c0 -17 5 -33 10 -36 6 -3 10 4 10 17 0 13 5 29 12 36 9 9
7 12 -10 12 -18 0 -22 -6 -22 -29z"/>
<path d="M2132 2483 c2 -23 8 -28 33 -30 20 -1 23 0 8 4 -28 6 -30 23 -3 23
11 0 20 7 20 15 0 10 -10 15 -31 15 -27 0 -30 -3 -27 -27z m35 11 c-3 -3 -12
-4 -19 -1 -8 3 -5 6 6 6 11 1 17 -2 13 -5z"/>
<path d="M2245 2501 c-3 -5 4 -16 16 -24 l21 -15 -23 -5 c-19 -4 -17 -5 5 -4
36 2 47 26 15 34 -22 6 -22 7 -3 14 18 7 18 8 -3 8 -12 1 -24 -3 -28 -8z"/>
<path d="M2314 2496 c-10 -27 4 -46 33 -45 24 2 25 2 6 6 -31 6 -29 23 3 23
34 0 26 24 -9 28 -18 2 -29 -2 -33 -12z m43 -2 c-3 -3 -12 -4 -19 -1 -8 3 -5
6 6 6 11 1 17 -2 13 -5z"/>
<path d="M3150 2504 c0 -5 6 -19 14 -29 13 -18 14 -18 26 6 12 21 12 23 -3 11
-13 -11 -17 -10 -26 5 -6 10 -11 13 -11 7z"/>
<path d="M4090 2506 c0 -2 7 -7 16 -10 8 -3 12 -2 9 4 -6 10 -25 14 -25 6z"/>
<path d="M4380 2500 c-9 -6 -10 -10 -3 -10 6 0 15 5 18 10 8 12 4 12 -15 0z"/>
<path d="M3483 2493 c9 -2 23 -2 30 0 6 3 -1 5 -18 5 -16 0 -22 -2 -12 -5z"/>
<path d="M4150 2480 c8 -5 22 -9 30 -9 10 0 8 3 -5 9 -27 12 -43 12 -25 0z"/>
<path d="M4315 2480 l-20 -9 20 0 c11 0 27 4 35 9 13 9 13 10 0 9 -8 0 -24 -4
-35 -9z"/>
<path d="M1121 2463 c-1 -6 -4 -20 -7 -30 -5 -17 -5 -17 6 0 6 10 9 23 6 30
-3 9 -5 9 -5 0z"/>
<path d="M2100 2422 c0 -16 34 -32 69 -32 23 0 34 -7 45 -27 18 -33 21 -25 4
12 -9 20 -18 25 -46 25 -20 0 -44 7 -54 17 -10 9 -18 11 -18 5z"/>
<path d="M2392 2414 c-7 -8 -30 -14 -50 -14 -33 0 -40 -5 -62 -40 -15 -24 -30
-38 -38 -35 -8 3 -12 0 -10 -7 8 -24 24 -16 50 27 24 39 32 45 61 45 31 0 78
23 67 33 -3 3 -11 -1 -18 -9z"/>
<path d="M3010 2415 c-11 -13 -10 -14 4 -9 9 3 16 10 16 15 0 13 -6 11 -20 -6z"/>
<path d="M4208 2413 c17 -2 47 -2 65 0 17 2 3 4 -33 4 -36 0 -50 -2 -32 -4z"/>
<path d="M420 2398 c0 -9 5 -20 10 -23 13 -8 13 5 0 25 -8 13 -10 13 -10 -2z"/>
<path d="M1085 2377 c-19 -41 -98 -123 -138 -144 -16 -8 -26 -17 -24 -20 6 -6
56 27 100 66 32 28 92 119 84 127 -3 3 -13 -10 -22 -29z"/>
<path d="M3442 2390 c7 -10 14 -18 15 -16 6 6 -9 36 -18 36 -5 0 -4 -9 3 -20z"/>
<path d="M3530 2399 c0 -5 5 -7 10 -4 6 3 10 8 10 11 0 2 -4 4 -10 4 -5 0 -10
-5 -10 -11z"/>
<path d="M937 2379 c-19 -21 -57 -25 -75 -7 -9 9 -17 7 -34 -9 -49 -44 -93
-53 -154 -31 -28 10 -37 8 -78 -16 -53 -31 -81 -28 -90 11 -4 14 -10 23 -13
20 -3 -4 -14 -2 -24 4 -11 5 -19 7 -19 3 0 -15 67 -66 120 -92 49 -24 66 -27
160 -27 97 0 110 2 163 30 31 16 74 47 95 69 20 21 32 36 26 33 -7 -4 -23 2
-36 13 -24 19 -25 19 -41 -1z"/>
<path d="M1570 2389 c0 -4 7 -24 16 -45 15 -37 17 -38 31 -19 24 33 36 62 12
31 l-22 -28 -18 33 c-10 19 -18 31 -19 28z"/>
<path d="M3503 2354 c-16 -25 -17 -25 -30 -8 -7 10 -13 13 -13 8 0 -6 6 -18
13 -28 14 -19 16 -17 51 42 14 23 -4 12 -21 -14z"/>
<path d="M4435 2359 c-16 -10 -25 -19 -19 -19 7 0 22 9 35 20 30 24 23 24 -16
-1z"/>
<path d="M370 2365 c0 -15 70 -94 103 -115 26 -17 24 -14 -10 17 -23 21 -54
53 -68 72 -14 19 -25 31 -25 26z"/>
<path d="M2884 2336 c-5 -12 -10 -14 -19 -6 -11 9 -12 7 -8 -10 l6 -22 20 21
c12 11 18 23 14 27 -4 4 -9 -1 -13 -10z"/>
<path d="M4355 2324 l-30 -15 30 6 c17 4 34 11 40 16 13 13 -5 10 -40 -7z"/>
<path d="M4193 2303 c26 -2 67 -2 90 0 23 2 2 3 -48 3 -49 0 -68 -1 -42 -3z"/>
<path d="M1457 2273 c-4 -3 -6 -94 -5 -202 l2 -196 6 195 5 195 1145 0 1145 0
3 -477 2 -478 -140 0 c-132 0 -140 1 -140 19 0 16 8 20 38 23 l37 3 3 61 c2
52 0 63 -15 68 -14 6 -16 5 -5 -5 6 -7 12 -35 12 -61 l0 -48 -40 0 -40 0 2
-132 c2 -121 2 -124 5 -35 l4 97 144 0 145 0 0 32 c0 30 1 31 19 14 11 -10 28
-16 38 -13 15 4 14 5 -4 6 -12 0 -29 11 -38 23 -13 20 -15 78 -15 461 1 241
-2 442 -5 447 -7 11 -2297 14 -2308 3z"/>
<path d="M515 2220 c3 -5 11 -10 16 -10 6 0 7 5 4 10 -3 6 -11 10 -16 10 -6 0
-7 -4 -4 -10z"/>
<path d="M3790 2220 c-8 -5 -10 -10 -5 -10 6 0 17 5 25 10 8 5 11 10 5 10 -5
0 -17 -5 -25 -10z"/>
<path d="M1500 2155 l0 -65 115 0 115 0 0 65 0 65 -115 0 -115 0 0 -65z m220
0 l0 -55 -105 0 -105 0 0 55 0 55 105 0 105 0 0 -55z"/>
<path d="M555 2200 c3 -5 14 -10 23 -10 15 0 15 2 2 10 -20 13 -33 13 -25 0z"/>
<path d="M880 2200 c-13 -8 -13 -10 2 -10 9 0 20 5 23 10 8 13 -5 13 -25 0z"/>
<path d="M1742 2140 l3 -70 -47 0 -48 0 0 -65 0 -65 68 2 67 2 -62 3 -63 4 0
54 0 55 60 0 c33 0 60 4 60 10 0 6 7 10 15 10 12 0 15 -15 15 -71 l0 -71 65 4
c36 1 65 0 65 -4 0 -5 -52 -8 -115 -8 l-114 0 -3 -72 -3 -73 -102 -3 -103 -3
0 -64 0 -65 79 0 79 0 7 36 c3 20 4 38 1 41 -2 3 -8 -11 -11 -31 l-7 -36 -69
0 -69 0 0 55 0 55 93 0 c87 0 95 2 117 25 13 14 18 25 12 25 -8 0 -12 18 -12
50 l0 50 55 0 c30 0 55 -4 55 -8 0 -4 -16 -23 -35 -42 -19 -19 -35 -39 -35
-44 0 -6 13 4 28 22 17 19 37 32 52 33 21 0 22 2 7 8 -17 6 -17 8 -3 20 41 34
61 -20 26 -69 -11 -15 -25 -51 -31 -79 -9 -42 -8 -60 6 -101 27 -80 42 -65 50
48 4 53 14 112 21 131 8 19 13 36 10 38 -2 2 -11 -15 -20 -38 -12 -30 -20 -39
-28 -31 -8 8 -6 18 6 36 9 14 16 37 16 51 0 28 30 36 31 8 0 -14 2 -15 6 -3
44 123 98 173 124 117 8 -18 7 -33 -5 -62 -22 -51 -22 -72 0 -50 9 9 24 13 35
10 14 -5 19 -1 19 12 0 55 64 82 85 36 13 -31 43 -29 51 2 3 13 4 45 2 70 -2
31 1 45 9 45 7 0 13 -6 13 -12 0 -9 17 -12 60 -10 l60 4 0 -57 0 -57 -60 4
c-33 1 -60 0 -60 -4 0 -5 30 -8 66 -8 l66 0 -4 70 c-2 51 0 70 10 70 8 0 12
-21 12 -70 l0 -70 65 0 65 0 0 70 c0 49 4 70 13 70 9 0 11 -19 9 -70 l-4 -70
66 0 c36 0 66 3 66 8 0 4 -27 5 -60 4 l-60 -4 0 56 0 56 66 0 c41 0 63 4 59
10 -3 6 1 10 10 10 14 0 16 -10 13 -67 -3 -64 -2 -68 20 -71 24 -4 29 13 11
38 -8 12 -9 10 -4 -7 4 -14 2 -23 -4 -23 -7 0 -11 23 -11 55 0 45 3 55 17 55
13 0 14 -3 5 -12 -7 -7 -12 -16 -12 -22 0 -5 6 -2 13 9 20 27 59 13 79 -28 24
-49 89 -149 94 -144 3 2 -5 21 -17 41 l-21 36 57 0 57 0 -4 70 c-2 57 0 70 12
70 12 0 14 -13 12 -75 l-4 -75 -44 0 c-24 0 -44 -4 -44 -8 0 -4 16 -6 35 -4
24 3 35 0 35 -9 0 -17 10 -5 40 46 18 29 19 36 7 26 -16 -12 -17 -9 -17 33 l0
46 54 0 c34 0 56 -5 59 -12 3 -7 6 -3 6 10 1 12 7 22 16 22 11 0 15 -11 15
-43 0 -49 -7 -62 -26 -46 -7 6 -18 9 -23 7 -6 -1 6 -12 27 -23 l37 -21 -3 53
-4 53 56 0 56 0 0 -55 0 -55 -46 0 c-27 0 -43 -4 -39 -10 3 -5 23 -10 43 -10
20 0 46 -7 56 -15 16 -12 22 -12 29 -2 6 9 7 8 4 -3 -2 -8 3 -23 12 -34 13
-14 16 -41 16 -131 0 -62 2 -116 5 -119 11 -11 14 146 4 208 -6 36 -5 38 17
32 13 -3 18 -3 12 0 -7 3 -13 13 -13 22 0 15 -2 15 -10 2 -9 -13 -11 -13 -20
0 -5 8 -10 21 -10 28 0 6 -12 12 -27 12 l-28 0 0 75 c0 53 4 75 13 75 8 0 12
-21 12 -70 l0 -70 65 0 65 0 0 70 0 70 45 0 45 0 0 65 0 65 -67 -2 -68 -2 63
-3 62 -4 0 -55 0 -56 -60 4 c-43 2 -60 -1 -60 -9 0 -7 -4 -13 -10 -13 -6 0
-10 30 -10 70 l0 70 -67 -2 -68 -2 63 -3 62 -4 0 -55 0 -56 -60 4 c-45 2 -60
0 -60 -10 0 -8 -5 -12 -12 -10 -8 3 -11 27 -9 72 l2 67 -68 -3 -68 -3 0 -68
c0 -47 -4 -67 -12 -67 -7 0 -13 6 -13 13 0 8 -17 11 -60 9 l-60 -4 0 56 0 55
63 4 62 3 -67 2 -68 2 0 -70 c0 -40 -4 -70 -10 -70 -6 0 -10 30 -10 70 l0 70
-65 0 -65 0 0 -70 c0 -56 -3 -70 -15 -70 -8 0 -15 4 -15 10 0 5 -26 10 -57 12
l-58 3 -3 52 -3 52 63 4 63 3 -67 2 -68 2 0 -70 c0 -40 -4 -70 -10 -70 -6 0
-10 30 -10 70 l0 70 -65 0 -65 0 0 -70 c0 -40 -4 -70 -10 -70 -6 0 -10 30 -10
70 l0 70 -65 0 -65 0 0 -70 c0 -40 -4 -70 -10 -70 -6 0 -10 30 -10 70 l0 70
-67 -2 -68 -2 63 -3 63 -4 -3 -52 -3 -52 -57 -3 c-32 -2 -58 -7 -58 -12 0 -6
-7 -10 -15 -10 -12 0 -15 14 -15 70 l0 70 -66 0 -66 0 4 -70 c2 -51 0 -70 -9
-70 -9 0 -13 21 -13 70 l0 70 -67 -2 -68 -2 63 -3 62 -4 0 -54 0 -55 -54 0
c-34 0 -56 5 -59 13 -3 6 -6 2 -6 -10 -1 -13 -7 -23 -13 -23 -10 0 -12 19 -10
70 l4 70 -72 0 -72 0 4 -70z m128 5 l0 -55 -60 0 -60 0 0 55 0 55 60 0 60 0 0
-55z m300 0 l0 -55 -55 0 -55 0 0 55 0 55 55 0 55 0 0 -55z m310 0 l0 -55 -55
0 -55 0 0 55 0 55 55 0 55 0 0 -55z m150 0 l0 -55 -55 0 -55 0 0 55 0 55 55 0
55 0 0 -55z m310 0 l0 -55 -55 0 -55 0 0 55 0 55 55 0 55 0 0 -55z m310 0 l0
-55 -60 0 -60 0 0 55 0 55 60 0 60 0 0 -55z m-1290 -117 c0 -82 -18 -93 -22
-15 -2 49 0 67 10 67 8 0 12 -17 12 -52z m152 0 c-4 -84 -10 -98 -35 -97 -17
1 -18 2 -4 6 14 4 17 16 17 74 0 48 4 69 13 69 8 0 11 -16 9 -52z m768 -5 c0
-67 -11 -63 -20 7 -5 38 -3 50 7 50 9 0 13 -16 13 -57z m-950 -18 l0 -55 -55
0 -55 0 0 55 0 55 55 0 55 0 0 -55z m150 33 c0 -20 -1 -20 -18 -5 -25 23 -41
21 -69 -5 l-23 -21 0 26 c0 26 2 27 55 27 50 0 55 -2 55 -22z m150 -33 c0 -55
-13 -73 -25 -35 -6 20 -39 34 -66 28 -9 -2 -15 7 -17 30 l-3 32 55 0 56 0 0
-55z m310 0 l0 -55 -55 0 -55 0 0 55 0 55 55 0 55 0 0 -55z m310 39 c0 -14 -3
-14 -15 -4 -8 7 -15 14 -15 16 0 2 7 4 15 4 8 0 15 -7 15 -16z m150 -39 l0
-55 -55 0 -55 0 0 55 0 55 55 0 55 0 0 -55z m460 0 l0 -55 -55 0 -55 0 0 55 0
55 55 0 55 0 0 -55z m-1572 -259 l-1 -41 -4 38 c-2 20 -8 37 -14 37 -5 0 -9 4
-9 10 0 5 7 7 15 4 10 -4 14 -19 13 -48z m-13 -114 c-3 -3 -5 2 -5 11 0 10 -4
17 -9 17 -14 0 -23 54 -14 86 6 26 9 21 20 -40 7 -38 11 -72 8 -74z"/>
<path d="M3648 2203 l63 -4 -3 -52 -3 -52 -60 -6 -60 -6 68 -1 67 -2 0 65 0
65 -67 -2 -68 -2 63 -3z"/>
<path d="M610 2180 c8 -5 26 -9 40 -9 l25 1 -25 8 c-14 4 -32 8 -40 9 -13 1
-13 0 0 -9z"/>
<path d="M810 2180 c-20 -6 -21 -8 -5 -8 11 0 29 3 40 8 25 11 -1 11 -35 0z"/>
<path d="M738 2163 c7 -3 16 -2 19 1 4 3 -2 6 -13 5 -11 0 -14 -3 -6 -6z"/>
<path d="M4263 2075 c-1 -46 4 -89 13 -110 8 -19 14 -46 14 -59 0 -22 -5 -25
-47 -29 -27 -2 -10 -3 37 -4 47 0 70 2 53 4 -31 4 -33 7 -33 44 0 23 -7 47
-15 55 -17 17 -21 84 -5 84 6 0 10 -7 10 -17 0 -9 2 -14 6 -11 3 3 -3 31 -13
63 l-19 56 -1 -76z"/>
<path d="M4198 2133 c6 -2 18 -2 25 0 6 3 1 5 -13 5 -14 0 -19 -2 -12 -5z"/>
<path d="M4308 2133 c6 -2 18 -2 25 0 6 3 1 5 -13 5 -14 0 -19 -2 -12 -5z"/>
<path d="M4144 2114 c-18 -14 -18 -14 6 -3 31 14 36 19 24 19 -6 0 -19 -7 -30
-16z"/>
<path d="M4370 2113 c14 -9 36 -26 50 -37 14 -12 9 -4 -12 17 -20 20 -43 37
-50 37 -7 0 -1 -7 12 -17z"/>
<path d="M4087 2068 c-31 -41 -47 -73 -47 -90 0 -7 12 10 26 37 14 28 33 58
41 68 9 9 13 17 10 17 -3 0 -17 -15 -30 -32z"/>
<path d="M1500 2005 l0 -65 65 0 65 0 0 65 0 65 -65 0 -65 0 0 -65z m120 0 l0
-55 -55 0 -55 0 0 55 0 55 55 0 55 0 0 -55z"/>
<path d="M3600 2061 l105 -6 3 -53 3 -53 -110 3 c-60 2 -107 0 -104 -4 2 -5
53 -8 114 -8 l109 0 0 65 0 65 -112 -2 -113 -2 105 -5z"/>
<path d="M4456 2027 c3 -10 9 -15 12 -12 3 3 0 11 -7 18 -10 9 -11 8 -5 -6z"/>
<path d="M1239 1969 l-44 -41 40 31 40 31 7 -22 c5 -19 6 -18 7 10 1 17 -1 32
-3 32 -2 0 -23 -18 -47 -41z"/>
<path d="M2788 2003 c7 -3 16 -2 19 1 4 3 -2 6 -13 5 -11 0 -14 -3 -6 -6z"/>
<path d="M2010 1984 c-17 -9 -20 -14 -9 -14 9 0 22 7 29 15 15 18 13 18 -20
-1z"/>
<path d="M4471 1990 c0 -8 4 -24 9 -35 l9 -20 0 20 c0 11 -4 27 -9 35 -9 13
-10 13 -9 0z"/>
<path d="M4026 1919 c-8 -43 -6 -169 4 -199 6 -16 7 -1 3 39 -4 48 -2 65 8 72
12 7 12 9 0 9 -10 0 -12 12 -6 55 7 59 1 75 -9 24z"/>
<path d="M3070 1932 c0 -8 9 -27 21 -43 11 -16 17 -33 14 -39 -7 -12 -66 -14
-81 -2 -5 4 0 -1 11 -12 11 -10 19 -23 18 -27 -5 -17 15 -9 21 8 6 14 9 12 22
-12 8 -15 13 -33 10 -39 -3 -7 -5 -6 -5 2 -1 8 -17 12 -47 12 -40 0 -50 5 -81
38 l-35 37 33 -48 c18 -26 40 -53 49 -60 13 -11 13 -10 1 6 -12 16 -10 17 27
17 44 0 56 -17 40 -59 l-8 -24 -27 24 -26 24 18 -27 c22 -36 29 -35 58 5 21
29 23 38 17 112 -4 44 -8 73 -9 65 -1 -9 -10 0 -21 20 -11 19 -19 29 -20 22z
m37 -124 c-3 -8 -6 -5 -6 6 -1 11 2 17 5 13 3 -3 4 -12 1 -19z"/>
<path d="M1145 1920 l-40 -7 43 -2 c23 0 42 4 42 9 0 6 -1 9 -2 9 -2 -1 -21
-5 -43 -9z"/>
<path d="M1502 1863 l2 -68 3 63 4 63 82 -3 82 -3 0 -57 c0 -32 3 -58 7 -58 5
0 8 29 8 65 l0 65 -95 0 -95 0 2 -67z"/>
<path d="M2120 1926 c0 -2 11 -6 25 -8 14 -3 25 -1 25 3 0 5 -11 9 -25 9 -14
0 -25 -2 -25 -4z"/>
<path d="M2197 1863 c-4 -38 -7 -107 -7 -155 l0 -88 36 0 c32 0 35 -2 28 -22
-5 -17 2 -14 29 16 25 26 43 37 59 34 20 -3 23 -8 21 -38 -2 -30 -1 -32 7 -12
5 12 16 22 25 22 12 0 15 -12 15 -56 0 -52 -1 -55 -22 -52 -16 2 -25 12 -29
33 -5 23 -7 17 -8 -26 0 -31 -3 -72 -6 -90 l-4 -34 11 37 c9 28 18 38 42 43
l31 8 -30 7 -30 8 28 1 c27 1 27 2 27 66 0 58 -2 65 -20 65 -11 0 -20 5 -20
10 0 6 25 10 55 10 l55 0 0 65 0 65 -65 0 -65 0 0 -60 c0 -33 -4 -60 -10 -60
-6 0 -10 27 -10 60 l0 60 -72 0 c-45 0 -68 4 -59 9 7 5 9 11 4 14 -5 3 -6 29
-3 59 5 53 5 53 42 56 l37 3 4 -63 3 -63 2 68 2 67 -49 0 -48 0 -6 -67z m133
-148 l0 -55 -60 0 -60 0 0 55 0 55 60 0 60 0 0 -55z m150 0 l0 -55 -55 0 -55
0 0 55 0 55 55 0 55 0 0 -55z m-195 -75 c-8 -13 -55 -13 -75 0 -11 7 -2 10 33
10 30 0 46 -4 42 -10z"/>
<path d="M2320 1865 c0 -36 3 -65 8 -65 4 0 7 26 7 57 l0 58 58 0 c31 0 57 3
57 8 0 4 -29 7 -65 7 l-65 0 0 -65z"/>
<path d="M2479 1928 c-6 -12 -3 -120 3 -124 4 -3 8 22 8 56 l0 61 53 -3 52 -3
0 -58 c0 -31 3 -57 8 -57 4 0 7 29 7 65 l0 65 -65 0 c-36 0 -66 -1 -66 -2z"/>
<path d="M2632 1863 l2 -68 3 63 4 62 54 0 54 0 4 -62 3 -63 2 68 2 67 -65 0
-65 0 2 -67z"/>
<path d="M2775 1917 c3 -10 6 -42 6 -70 1 -30 4 -40 6 -24 2 15 9 25 14 22 13
-9 10 5 -12 50 -11 22 -17 32 -14 22z"/>
<path d="M3400 1923 c0 -5 26 -8 57 -8 l58 0 6 -60 6 -60 1 68 2 67 -65 0
c-36 0 -65 -3 -65 -7z"/>
<path d="M3552 1863 l2 -68 3 63 4 63 72 -3 72 -3 3 -127 3 -127 -63 -4 -63
-3 68 -2 67 -2 0 140 0 140 -85 0 -85 0 2 -67z"/>
<path d="M4492 1910 c0 -14 2 -19 5 -12 2 6 2 18 0 25 -3 6 -5 1 -5 -13z"/>
<path d="M1318 1910 c24 -3 48 -13 53 -21 12 -19 11 -126 -1 -150 -10 -17 -22
-19 -138 -19 -86 0 -132 4 -140 12 -16 16 -16 150 1 168 10 12 9 12 -5 1 -14
-11 -18 -29 -18 -87 0 -103 2 -104 159 -104 156 0 161 3 161 103 0 82 -19 108
-77 106 l-38 -2 43 -7z"/>
<path d="M3241 1904 c0 -11 3 -14 6 -6 3 7 2 16 -1 19 -3 4 -6 -2 -5 -13z"/>
<path d="M2085 1870 c-4 -12 -5 -24 -2 -27 3 -2 8 5 12 17 4 12 5 24 2 27 -3
2 -8 -5 -12 -17z"/>
<path d="M2026 1843 c-3 -21 -6 -96 -6 -166 0 -99 3 -128 13 -125 7 3 16 43
23 109 6 57 14 118 18 134 l7 30 -15 -25 c-8 -14 -16 -43 -17 -65 -1 -22 -5
-53 -9 -70 -6 -22 -8 -9 -9 48 -1 54 3 77 11 77 9 0 9 3 1 11 -6 6 -9 26 -6
45 3 19 3 34 1 34 -3 0 -8 -17 -12 -37z"/>
<path d="M3252 1850 c0 -19 2 -27 5 -17 2 9 2 25 0 35 -3 9 -5 1 -5 -18z"/>
<path d="M3310 1876 c0 -2 11 -6 25 -8 13 -3 22 -1 19 3 -5 9 -44 13 -44 5z"/>
<path d="M1454 1780 c0 -52 1 -74 3 -47 2 26 2 68 0 95 -2 26 -3 4 -3 -48z"/>
<path d="M4158 1863 c7 -3 16 -2 19 1 4 3 -2 6 -13 5 -11 0 -14 -3 -6 -6z"/>
<path d="M4425 1854 c22 -7 48 -18 58 -24 13 -8 17 -7 17 7 0 9 -3 14 -6 10
-3 -3 -24 1 -46 9 -22 8 -46 14 -52 13 -6 0 7 -7 29 -15z"/>
<path d="M1192 1830 c0 -19 2 -27 5 -17 2 9 2 25 0 35 -3 9 -5 1 -5 -18z"/>
<path d="M3462 1819 c14 -25 19 -43 12 -47 -6 -4 -3 -14 8 -24 17 -17 18 -17
18 2 0 15 7 20 25 20 24 0 25 -3 25 -55 0 -52 -1 -55 -25 -55 -17 0 -25 6 -26
18 -1 34 -18 -21 -17 -58 0 -19 2 -27 5 -17 2 9 8 17 13 17 5 0 7 7 4 15 -5
11 1 15 25 15 l31 0 0 65 0 65 -33 0 c-28 0 -37 6 -56 40 -12 22 -25 40 -27
40 -3 0 5 -18 18 -41z"/>
<path d="M4108 1853 c7 -3 16 -2 19 1 4 3 -2 6 -13 5 -11 0 -14 -3 -6 -6z"/>
<path d="M1230 1830 c0 -5 12 -10 26 -10 14 0 23 4 19 10 -3 6 -15 10 -26 10
-10 0 -19 -4 -19 -10z"/>
<path d="M2884 1825 c-17 -13 -16 -14 14 -4 33 11 41 19 19 19 -7 0 -22 -7
-33 -15z"/>
<path d="M2815 1813 c12 -31 5 -134 -12 -159 -8 -13 -24 -24 -35 -24 -18 0
-19 -6 -16 -70 2 -39 0 -70 -4 -70 -5 0 -8 -4 -8 -10 0 -5 7 -10 15 -10 7 0
19 -8 25 -17 11 -17 11 -17 6 0 -15 48 -17 65 -7 71 6 4 11 17 10 29 0 12 -3
16 -6 9 -8 -21 -23 -3 -23 29 0 19 5 29 15 29 8 0 15 -8 15 -19 0 -15 5 -17
28 -12 25 5 25 6 4 9 -18 3 -21 8 -15 30 3 15 10 29 15 30 4 2 8 29 8 60 l1
57 15 -28 c9 -16 17 -27 20 -25 5 6 -44 108 -52 108 -3 0 -3 -8 1 -17z"/>
<path d="M1933 1813 c9 -2 23 -2 30 0 6 3 -1 5 -18 5 -16 0 -22 -2 -12 -5z"/>
<path d="M3263 1755 c0 -33 2 -45 4 -27 2 18 2 45 0 60 -2 15 -4 0 -4 -33z"/>
<path d="M1243 1793 c9 -2 23 -2 30 0 6 3 -1 5 -18 5 -16 0 -22 -2 -12 -5z"/>
<path d="M4402 1770 c0 -19 2 -27 5 -17 2 9 2 25 0 35 -3 9 -5 1 -5 -18z"/>
<path d="M2510 1715 l0 -65 65 0 65 0 0 65 0 65 -65 0 -65 0 0 -65z m120 0 l0
-55 -55 0 -55 0 0 55 0 55 55 0 55 0 0 -55z"/>
<path d="M2660 1715 l0 -65 68 2 67 2 -61 3 -61 4 -2 54 -1 54 62 4 63 3 -67
2 -68 2 0 -65z"/>
<path d="M2093 1763 c9 -2 25 -2 35 0 9 3 1 5 -18 5 -19 0 -27 -2 -17 -5z"/>
<path d="M1731 1744 c0 -11 3 -14 6 -6 3 7 2 16 -1 19 -3 4 -6 -2 -5 -13z"/>
<path d="M4491 1744 c0 -11 3 -14 6 -6 3 7 2 16 -1 19 -3 4 -6 -2 -5 -13z"/>
<path d="M4402 1705 c0 -16 2 -22 5 -12 2 9 2 23 0 30 -3 6 -5 -1 -5 -18z"/>
<path d="M1721 1695 c0 -17 3 -25 7 -18 4 7 19 17 32 23 l25 10 -27 -5 c-16
-3 -28 0 -31 8 -3 6 -6 -1 -6 -18z"/>
<path d="M2870 1707 c0 -5 5 -17 11 -29 10 -18 8 -19 -13 -13 l-23 8 25 -21
c20 -16 26 -32 31 -88 4 -38 12 -89 19 -113 11 -36 11 -44 -1 -52 -11 -7 -11
-9 3 -9 16 0 24 18 41 100 3 14 -1 39 -9 55 l-14 30 6 -31 c4 -23 1 -31 -11
-31 -11 0 -15 11 -15 39 0 24 4 37 10 33 15 -9 12 1 -15 53 -29 56 -45 80 -45
69z m77 -213 c-3 -3 -12 -4 -19 -1 -8 3 -5 6 6 6 11 1 17 -2 13 -5z m3 -28 c0
-3 -4 -8 -10 -11 -5 -3 -10 -1 -10 4 0 6 5 11 10 11 6 0 10 -2 10 -4z"/>
<path d="M4476 1674 c-4 -14 -5 -28 -3 -31 3 -2 8 8 11 23 4 14 5 28 3 31 -3
2 -8 -8 -11 -23z"/>
<path d="M1454 1580 c0 -58 1 -81 3 -52 2 28 2 76 0 105 -2 28 -3 5 -3 -53z"/>
<path d="M4041 1660 c0 -8 4 -24 9 -35 l9 -20 0 20 c0 11 -4 27 -9 35 -9 13
-10 13 -9 0z"/>
<path d="M3256 1635 c8 -37 14 -45 14 -19 0 10 -5 26 -10 34 -8 11 -9 7 -4
-15z"/>
<path d="M1722 1615 c0 -16 2 -22 5 -12 2 9 2 23 0 30 -3 6 -5 -1 -5 -18z"/>
<path d="M2858 1615 c-3 -14 -1 -25 3 -25 5 0 9 11 9 25 0 14 -2 25 -4 25 -2
0 -6 -11 -8 -25z"/>
<path d="M1500 1565 l0 -65 75 0 75 0 0 -69 c0 -39 5 -73 10 -76 6 -3 10 -15
10 -26 0 -18 -8 -19 -105 -19 l-104 0 -4 83 -3 82 -2 -87 -2 -88 110 0 109 0
4 -147 c2 -128 3 -120 4 57 1 138 -2 226 -11 270 -8 36 -14 57 -15 48 -1 -15
-11 -18 -71 -18 l-70 0 0 55 0 54 63 4 62 3 -67 2 -68 2 0 -65z"/>
<path d="M2312 1618 c-14 -14 -16 -58 -3 -58 5 0 7 10 4 21 -4 15 0 27 12 35
11 8 14 14 9 14 -6 0 -15 -5 -22 -12z"/>
<path d="M2442 1568 l3 -63 65 0 65 0 3 63 3 62 -53 -2 -53 -2 48 -3 47 -4 0
-55 0 -55 -57 3 -58 3 0 58 c0 31 -4 57 -8 57 -4 0 -7 -28 -5 -62z"/>
<path d="M2600 1565 l0 -65 65 0 65 0 0 65 0 65 -65 0 -65 0 0 -65z m120 0 l0
-55 -55 0 -55 0 0 55 0 55 55 0 55 0 0 -55z"/>
<path d="M3563 1623 c26 -2 67 -2 90 0 23 2 2 3 -48 3 -49 0 -68 -1 -42 -3z"/>
<path d="M3705 1573 l0 -58 -118 0 c-64 0 -117 -3 -117 -7 0 -5 56 -8 125 -8
l125 0 0 65 c0 36 -3 65 -7 65 -5 0 -8 -26 -8 -57z"/>
<path d="M1655 1599 c-11 -17 1 -21 15 -4 8 9 8 15 2 15 -6 0 -14 -5 -17 -11z"/>
<path d="M4362 1562 c-11 -26 -29 -58 -39 -72 -16 -22 -16 -24 -1 -11 19 14
73 119 66 126 -2 3 -14 -17 -26 -43z"/>
<path d="M3358 1575 c-3 -14 -1 -25 3 -25 5 0 9 11 9 25 0 14 -2 25 -4 25 -2
0 -6 -11 -8 -25z"/>
<path d="M4060 1593 c0 -5 7 -18 15 -29 13 -18 14 -18 8 4 -5 22 -23 41 -23
25z"/>
<path d="M2240 1556 c0 -19 -29 -48 -41 -41 -5 4 -9 -23 -9 -61 0 -38 4 -64 8
-58 16 17 59 174 48 174 -3 0 -6 -6 -6 -14z m-33 -108 c-3 -8 -6 -5 -6 6 -1
11 2 17 5 13 3 -3 4 -12 1 -19z"/>
<path d="M3261 1554 c0 -11 3 -14 6 -6 3 7 2 16 -1 19 -3 4 -6 -2 -5 -13z"/>
<path d="M3076 1537 c3 -10 9 -15 12 -12 3 3 0 11 -7 18 -10 9 -11 8 -5 -6z"/>
<path d="M1741 1524 c0 -11 3 -14 6 -6 3 7 2 16 -1 19 -3 4 -6 -2 -5 -13z"/>
<path d="M4415 1519 c-4 -6 -5 -12 -2 -15 2 -3 7 2 10 11 7 17 1 20 -8 4z"/>
<path d="M4112 1500 c19 -32 94 -90 116 -90 9 0 -2 10 -26 21 -23 12 -57 38
-74 58 -17 20 -24 25 -16 11z"/>
<path d="M1568 1483 l52 -4 0 -55 0 -54 -55 0 -54 0 -4 58 -3 57 -2 -68 -2
-68 63 3 62 3 0 65 0 65 -55 1 -55 1 53 -4z"/>
<path d="M1780 1474 c0 -10 5 -26 10 -34 8 -11 9 -7 4 15 -8 37 -14 45 -14 19z"/>
<path d="M2438 1483 c7 -3 16 -2 19 1 4 3 -2 6 -13 5 -11 0 -14 -3 -6 -6z"/>
<path d="M2503 1483 c15 -2 39 -2 55 0 15 2 2 4 -28 4 -30 0 -43 -2 -27 -4z"/>
<path d="M2643 1483 c15 -2 39 -2 55 0 15 2 2 4 -28 4 -30 0 -43 -2 -27 -4z"/>
<path d="M3470 1480 c0 -12 8 -12 35 0 18 8 17 9 -7 9 -16 1 -28 -3 -28 -9z"/>
<path d="M3596 1482 c-2 -4 12 -6 32 -4 62 6 69 10 20 11 -26 0 -49 -3 -52 -7z"/>
<path d="M3705 1428 l0 -62 -57 3 c-38 2 -58 -1 -58 -9 0 -7 21 -10 63 -8 l62
3 3 59 c2 32 -1 63 -5 67 -5 5 -8 -19 -8 -53z"/>
<path d="M4379 1473 c-13 -16 -12 -17 4 -4 16 13 21 21 13 21 -2 0 -10 -8 -17
-17z"/>
<path d="M4320 1430 c-9 -6 -10 -10 -3 -10 6 0 15 5 18 10 8 12 4 12 -15 0z"/>
<path d="M2085 1419 c-4 -6 -5 -12 -2 -15 2 -3 7 2 10 11 7 17 1 20 -8 4z"/>
<path d="M2793 1398 l4 -28 -228 0 c-168 0 -229 3 -229 12 0 26 -13 -4 -29
-70 -27 -102 -112 -245 -203 -340 -73 -77 -107 -132 -144 -236 -27 -75 -7 -45
31 48 33 78 51 106 113 172 40 43 88 102 106 129 32 51 91 166 100 198 5 16
25 17 246 17 l240 0 15 -37 c29 -69 68 -114 176 -204 106 -87 108 -90 130
-159 13 -38 25 -68 27 -65 6 6 -40 138 -52 150 -6 5 -38 32 -71 59 -161 133
-214 206 -216 304 0 20 -5 46 -10 57 -8 17 -9 16 -6 -7z m7 -68 c0 -19 -7 -20
-239 -20 -234 0 -239 0 -234 20 5 19 14 20 239 20 227 0 234 -1 234 -20z"/>
<path d="M1690 1391 c0 -6 4 -13 10 -16 6 -3 7 1 4 9 -7 18 -14 21 -14 7z"/>
<path d="M2932 1355 c0 -16 2 -22 5 -12 2 9 2 23 0 30 -3 6 -5 -1 -5 -18z"/>
<path d="M2192 1323 c0 -30 2 -34 8 -18 11 26 12 55 2 55 -5 0 -9 -17 -10 -37z"/>
<path d="M2556 1215 c-32 -39 -42 -45 -75 -45 -56 0 -71 -22 -71 -107 0 -100
5 -103 162 -103 105 0 128 3 139 17 13 15 12 15 -8 5 -30 -16 -255 -16 -271 0
-7 7 -12 41 -12 83 0 82 9 95 61 95 32 0 43 7 74 42 29 35 38 40 45 28 5 -8
10 -24 10 -34 0 -11 3 -17 6 -13 9 8 -5 77 -15 77 -5 0 -25 -20 -45 -45z"/>
<path d="M2655 1163 c22 -3 47 -10 55 -16 13 -11 13 -10 1 6 -9 12 -26 16 -55
15 l-41 -1 40 -4z"/>
<path d="M2566 1079 c-9 -29 -14 -54 -12 -56 2 -2 12 19 21 47 9 28 15 53 13
56 -3 2 -12 -19 -22 -47z"/>
<path d="M2723 1065 c0 -38 2 -53 4 -32 2 20 2 52 0 70 -2 17 -4 1 -4 -38z"/>
<path d="M2620 1080 c22 -17 23 -20 6 -20 -11 0 -17 -3 -13 -6 8 -8 47 5 47
16 0 4 -15 13 -32 19 l-33 11 25 -20z"/>
<path d="M3481 1085 c0 -11 4 -27 9 -35 9 -13 10 -13 9 0 0 8 -4 24 -9 35 l-9
20 0 -20z"/>
<path d="M2484 1079 c-7 -12 13 -29 36 -29 13 0 13 1 0 10 -13 9 -13 11 0 20
12 8 11 10 -7 10 -12 0 -25 -5 -29 -11z"/>
<path d="M3500 1010 c0 -8 5 -22 10 -30 9 -13 10 -13 10 0 0 8 -5 22 -10 30
-9 13 -10 13 -10 0z"/>
<path d="M1645 974 c-9 -14 -14 -28 -12 -31 3 -3 13 9 22 26 19 38 14 41 -10
5z"/>
<path d="M3532 910 c0 -14 2 -19 5 -12 2 6 2 18 0 25 -3 6 -5 1 -5 -13z"/>
<path d="M1611 893 c-1 -6 -4 -20 -7 -30 -5 -17 -5 -17 6 0 6 10 9 23 6 30 -3
9 -5 9 -5 0z"/>
<path d="M3151 810 c0 -8 6 -28 14 -45 7 -16 14 -23 14 -15 0 8 -6 29 -14 45
-7 17 -14 23 -14 15z"/>
<path d="M3180 720 c0 -8 5 -22 10 -30 9 -13 10 -13 10 0 0 8 -5 22 -10 30 -9
13 -10 13 -10 0z"/>
<path d="M1941 664 c0 -11 3 -14 6 -6 3 7 2 16 -1 19 -3 4 -6 -2 -5 -13z"/>
<path d="M3201 654 c0 -11 3 -14 6 -6 3 7 2 16 -1 19 -3 4 -6 -2 -5 -13z"/>
</g>
</svg>
